/* XPM */
static const char * Date_xpm[] = {
"16 16 2 1",
" 	c #F405CE",
".	c #12E5A0",
"                ",
"                ",
"                ",
" ...            ",
" .....   ...... ",
" ......  ...... ",
" .. ....   ..   ",
" ..   ..   ..   ",
" ..   ..   ..   ",
" ..   ..   ..   ",
" ..  ...   ..   ",
" .. ...    ..   ",
" ......    ..   ",
" .....     ..   ",
"                ",
"                "};
