/* XPM */
static const char * Month_xpm[] = {
"16 16 2 1",
" 	c #2BBD49",
".	c #E7F1E8",
"  ...      ...  ",
"  ...     ....  ",
" .....   ...... ",
" ...... ....... ",
" ...... ....... ",
" .............. ",
" .......... ... ",
" ... .....  ... ",
" ... .....  ... ",
" ...  ...   ... ",
" ...        ... ",
" ...        ... ",
" .....    ..... ",
"  ....    ....  ",
"  ....    ....  ",
"                "};
