/* XPM */
static const char * Darian_xpm[] = {
"16 16 2 1",
" 	c #626DAB",
".	c #E7F1E8",
"                ",
"   .....        ",
"   .......      ",
"   ........     ",
"   ..  ....     ",
"   ..    ...    ",
"   ..    ...    ",
"   ..     ..    ",
"   ..     ..    ",
"   ..    ...    ",
"   ..    ...    ",
"   ..  ....     ",
"   ........     ",
"   ......       ",
"   ....         ",
"                "};
