/* XPM */
static char * Georgian_xpm[] = {
"16 16 2 1",
" 	c #AB7C62",
".	c #E7F1E8",
"                ",
"                ",
"     ......     ",
"    .......     ",
"   ........     ",
"   .....        ",
"   ....         ",
"   ...   ...    ",
"   ...   ...    ",
"   ....  ...    ",
"   .........    ",
"   .........    ",
"    ........    ",
"      .....     ",
"                ",
"                "};
