/* XPM */
static const char * Time_xpm[] = {
"16 16 2 1",
" 	c #E5DD12",
".	c #4305F4",
"                ",
"                ",
"  .......  ...  ",
"  .......  ...  ",
"  .......  ...  ",
"    ...    ...  ",
"    ...    ...  ",
"    ...    ...  ",
"    ...    ...  ",
"    ...    ...  ",
"    ...    ...  ",
"    ...    ...  ",
"    ...    ...  ",
"    ...    ...  ",
"                ",
"                "};
