/* XPM */
static const char * Year_xpm[] = {
"16 16 2 1",
" 	c #2BBBBD",
".	c #E7F1E8",
"                ",
" ...       ...  ",
" ....     ....  ",
" .....   .....  ",
" ...... .....   ",
"  ...........   ",
"   .........    ",
"    .......     ",
"     ......     ",
"     .....      ",
"    .....       ",
"   .....        ",
"   .....        ",
"  .....         ",
"  ....          ",
"  ....          "};
